<?xml version="1.0" standalone="no"?>
<!DOCTYPE svg PUBLIC "-//W3C//DTD SVG 20010904//EN"
 "http://www.w3.org/TR/2001/REC-SVG-20010904/DTD/svg10.dtd">
<svg version="1.0" xmlns="http://www.w3.org/2000/svg"
 width="700.000000pt" height="700.000000pt" viewBox="0 0 700.000000 700.000000"
 preserveAspectRatio="xMidYMid meet">
<metadata>
Created by potrace 1.14, written by Peter Selinger 2001-2017
</metadata>
<g transform="translate(0.000000,700.000000) scale(0.100000,-0.100000)"
fill="#000000" stroke="none">
<path d="M3500 5665 c0 -653 -4 -1185 -9 -1185 -4 0 -25 26 -46 58 -182 274
-574 433 -1025 416 -615 -24 -1147 -398 -1450 -1019 -139 -285 -215 -548 -266
-915 -21 -159 -30 -589 -15 -775 91 -1126 670 -1924 1486 -2050 127 -19 211
-23 620 -31 481 -9 829 15 1064 73 55 14 151 18 591 22 l525 6 -1 30 c-1 17
-5 130 -9 253 l-7 222 101 105 c193 201 333 400 540 768 123 220 342 521 596
821 78 93 125 157 125 171 0 60 -404 181 -635 191 -49 2 -237 6 -417 10 l-328
7 0 2003 0 2004 -720 0 -720 0 0 -1185z m-471 -1881 c187 -53 341 -207 412
-411 50 -144 51 -160 56 -676 l5 -488 -44 -52 c-137 -161 -264 -364 -398 -635
-60 -122 -90 -172 -105 -176 -37 -10 -139 -6 -208 9 -304 64 -511 341 -587
785 -27 158 -37 474 -21 647 29 318 114 586 237 755 44 59 142 150 198 183
134 78 308 101 455 59z m2916 -1208 c-648 -231 -1139 -541 -1919 -1212 -121
-104 -297 -255 -392 -335 -455 -387 -756 -580 -1068 -683 -130 -43 -194 -55
-96 -18 290 111 545 302 1155 866 411 379 612 552 840 722 495 368 976 593
1465 684 144 27 146 23 15 -24z"/>
</g>
</svg>
